<svg width="17" height="12" viewBox="0 0 17 12" fill="none" xmlns="http://www.w3.org/2000/svg">
<path d="M1.49414 0H15.5059C16.3297 0 17 0.670272 17 1.49414V10.1529C17 10.9768 16.3297 11.6471 15.5059 11.6471H1.49414C0.670271 11.6471 0 10.9768 0 10.1529V1.49414C0 0.670272 0.670271 0 1.49414 0ZM1.68914 0.996094L1.88856 1.16214L7.90719 6.17386C8.25071 6.45987 8.74936 6.45987 9.09281 6.17386L15.1114 1.16214L15.3109 0.996094H1.68914ZM16.0039 1.71521L11.1001 5.79863L16.0039 9.06226V1.71521ZM1.49414 10.651H15.5059C15.7465 10.651 15.9478 10.4794 15.9939 10.2522L10.3014 6.46365L9.73018 6.93932C9.37377 7.23609 8.93685 7.38447 8.49997 7.38447C8.06308 7.38447 7.62619 7.23609 7.26976 6.93932L6.69853 6.46365L1.00605 10.2521C1.05221 10.4794 1.25348 10.651 1.49414 10.651ZM0.996094 9.06226L5.89993 5.79866L0.996094 1.71521V9.06226Z" fill="#393E46"/>
</svg>
