<svg width="13" height="17" viewBox="0 0 13 17" fill="none" xmlns="http://www.w3.org/2000/svg">
<path d="M10.6318 7.2296V4.53742C10.639 3.31927 10.1524 2.14798 9.28387 1.29383C8.44414 0.457706 7.34492 0 6.18084 0C6.16282 0 6.14119 0 6.12317 0C3.64003 0.00360399 1.62179 2.03625 1.62179 4.53742V7.2296C0.684757 7.34132 0 8.12699 0 9.07844V15.1259C0 16.1531 0.821709 17 1.84884 17H10.4083C11.4354 17 12.2572 16.1531 12.2572 15.1259V9.07844C12.2535 8.13059 11.5688 7.34132 10.6318 7.2296ZM2.33899 4.53742H2.34259C2.34259 2.43269 4.04007 0.709985 6.12678 0.709985H6.13038C7.12148 0.706381 8.07293 1.09922 8.7757 1.79839C9.50731 2.52279 9.91457 3.51028 9.90736 4.53742V7.2332H9.11448V4.53742C9.12169 3.71931 8.79733 2.93364 8.21709 2.35701C7.66928 1.8092 6.92686 1.49926 6.152 1.49926H6.13038C4.47255 1.49926 3.13186 2.86156 3.13186 4.53381V7.2332H2.33899V4.53742ZM8.39729 4.53742V7.2332H3.85626V4.53742C3.85626 3.26161 4.87259 2.22366 6.13398 2.22366H6.15561C6.73945 2.22366 7.30167 2.45792 7.71613 2.87238C8.15582 3.31206 8.40449 3.91393 8.39729 4.53742ZM11.5688 15.1367C11.5688 15.7674 11.057 16.2792 10.4263 16.2792H1.86326C1.23256 16.2792 0.720797 15.7674 0.720797 15.1367V9.09646C0.720797 8.46576 1.23256 7.954 1.86326 7.954H10.4263C11.057 7.954 11.5688 8.46576 11.5688 9.09646V15.1367Z" fill="#393E46"/>
<path d="M10.6318 7.2296V4.53742C10.639 3.31927 10.1524 2.14798 9.28387 1.29383C8.44414 0.457706 7.34492 0 6.18084 0C6.16282 0 6.14119 0 6.12317 0C3.64003 0.00360399 1.62179 2.03625 1.62179 4.53742V7.2296C0.684757 7.34132 0 8.12699 0 9.07844V15.1259C0 16.1531 0.821709 17 1.84884 17H10.4083C11.4354 17 12.2572 16.1531 12.2572 15.1259V9.07844C12.2535 8.13059 11.5688 7.34132 10.6318 7.2296ZM2.33899 4.53742H2.34259C2.34259 2.43269 4.04007 0.709985 6.12678 0.709985H6.13038C7.12148 0.706381 8.07293 1.09922 8.7757 1.79839C9.50731 2.52279 9.91457 3.51028 9.90736 4.53742V7.2332H9.11448V4.53742C9.12169 3.71931 8.79733 2.93364 8.21709 2.35701C7.66928 1.8092 6.92686 1.49926 6.152 1.49926H6.13038C4.47255 1.49926 3.13186 2.86156 3.13186 4.53381V7.2332H2.33899V4.53742ZM8.39729 4.53742V7.2332H3.85626V4.53742C3.85626 3.26161 4.87259 2.22366 6.13398 2.22366H6.15561C6.73945 2.22366 7.30167 2.45792 7.71613 2.87238C8.15582 3.31206 8.40449 3.91393 8.39729 4.53742ZM11.5688 15.1367C11.5688 15.7674 11.057 16.2792 10.4263 16.2792H1.86326C1.23256 16.2792 0.720797 15.7674 0.720797 15.1367V9.09646C0.720797 8.46576 1.23256 7.954 1.86326 7.954H10.4263C11.057 7.954 11.5688 8.46576 11.5688 9.09646V15.1367Z" fill="#393E46"/>
<path d="M7.37376 11.8933C7.21519 11.3347 6.70703 10.9526 6.12678 10.9526C5.40959 10.9526 4.82574 11.5329 4.82574 12.2537C4.82574 12.8339 5.20777 13.3421 5.76639 13.5007V14.5098C5.76639 14.708 5.92856 14.8702 6.12678 14.8702C6.325 14.8702 6.48718 14.708 6.48718 14.5098V13.5007C7.17554 13.3024 7.57559 12.5816 7.37376 11.8933ZM6.12678 12.8303C5.80603 12.8303 5.54654 12.5708 5.54654 12.2501C5.54654 11.9293 5.80603 11.6698 6.12678 11.6698C6.44754 11.6698 6.70703 11.9293 6.70703 12.2501C6.70703 12.5708 6.44754 12.8303 6.12678 12.8303Z" fill="#393E46"/>
</svg>
