<svg width="28" height="28" viewBox="0 0 28 28" fill="none" xmlns="http://www.w3.org/2000/svg">
<path d="M12.1401 0.034686C5.4457 0.034686 0 5.48038 0 12.1748C0 18.8692 5.4457 24.3149 12.1401 24.3149C14.1866 24.3149 16.1984 23.8293 17.898 22.8927C18.0341 23.0566 18.1851 23.2075 18.3489 23.3437L21.8175 26.8123C22.1378 27.1726 22.5283 27.4638 22.9652 27.6678C23.4021 27.8717 23.876 27.9843 24.3579 27.9985C24.8399 28.0127 25.3196 27.9282 25.7677 27.7503C26.2158 27.5723 26.6228 27.3047 26.9638 26.9638C27.3047 26.6228 27.5723 26.2158 27.7503 25.7677C27.9282 25.3196 28.0127 24.8399 27.9985 24.3579C27.9843 23.876 27.8717 23.402 27.6678 22.9652C27.4638 22.5283 27.1727 22.1378 26.8123 21.8175L23.3437 18.3489C23.1747 18.1799 22.9887 18.0287 22.7887 17.898C23.7252 16.1984 24.3149 14.2212 24.3149 12.1401C24.3149 5.4457 18.8692 0 12.1748 0L12.1401 0.034686ZM12.1401 3.50328C16.9614 3.50328 20.8116 7.35343 20.8116 12.1748C20.8116 14.4641 19.9791 16.5799 18.5223 18.1408C18.4876 18.1755 18.4529 18.2101 18.4183 18.2448C18.2544 18.381 18.1035 18.5319 17.9673 18.6957C16.4412 20.0832 14.36 20.881 12.1054 20.881C7.28406 20.881 3.43391 17.0308 3.43391 12.2095C3.43391 7.38811 7.28406 3.53797 12.1054 3.53797L12.1401 3.50328Z" fill="#00ADB5" fill-opacity="0.9"/>
</svg>
